<?xml version="1.0" encoding="utf-8"?>
<!-- Generator: Adobe Illustrator 23.1.1, SVG Export Plug-In . SVG Version: 6.00 Build 0)  -->
<svg version="1.1" xmlns="http://www.w3.org/2000/svg" xmlns:xlink="http://www.w3.org/1999/xlink" x="0px" y="0px"
	 viewBox="0 0 800 600" style="enable-background:new 0 0 800 600;" xml:space="preserve">
<style type="text/css">
	.st0{opacity:0.5;}
	.st1{fill:#C4582E;}
	.st2{fill:#F18B41;}
	.st3{fill:#F4AC66;}
	.st4{fill:#3D5B14;}
	.st5{fill:#59280E;}
</style>
<g id="pumpkinShadow">
	<ellipse class="st0" cx="391.2" cy="556.7" rx="346.4" ry="34.3"/>
</g>
<g id="pumpkinBody_1_">
	<g id="pumpkinBody">
		<g>
			<path class="st1" d="M436.4,79.9c-12.1-1-24.5-1.5-36.9-1.5c10.8,0,21.5,0.5,31.9,1.5c146.2,13.7,247.9,120.3,247.9,249.9
				S577.6,565.9,431.4,579.6c-10.4,1-21.1,1.5-31.9,1.5c12.5,0,24.8-0.5,36.9-1.5c169.4-13.7,301.2-120.3,301.2-249.9
				S605.8,93.6,436.4,79.9z"/>
		</g>
		<g>
			<g>
				<path class="st2" d="M194.9,329.8c0-138.8,88.9-251.3,204.6-251.3c-161.2,0-292,112.5-292,251.3s130.8,251.3,292,251.3
					C283.8,581.1,194.9,468.5,194.9,329.8z"/>
			</g>
			<g>
				<path class="st2" d="M431.4,79.9c-10.4-1-21.1-1.5-31.9-1.5c7.8,0,15.4,0.5,22.9,1.5c104.9,13.7,184.1,120.3,184.1,249.9
					s-79.2,236.1-184.1,249.9c-7.5,1-15.2,1.5-22.9,1.5c10.8,0,21.5-0.5,31.9-1.5c146.2-13.7,260.1-120.3,260.1-249.9
					S577.6,93.6,431.4,79.9z"/>
			</g>
		</g>
		<g>
			<path class="st1" d="M119.7,329.8c0-138.8,118.6-251.3,279.8-251.3C212.8,78.5,61.4,191,61.4,329.8s151.4,251.3,338.1,251.3
				C238.3,581.1,119.7,468.5,119.7,329.8z"/>
		</g>
		<g>
			<path class="st3" d="M422.4,79.9c-7.5-1-15.2-1.5-22.9-1.5c-115.7,0-209.4,112.5-209.4,251.3s93.7,251.3,209.4,251.3
				c7.8,0,15.4-0.5,22.9-1.5c104.9-13.7,186.5-120.3,186.5-249.9S527.3,93.6,422.4,79.9z"/>
		</g>
		<polygon class="st4" points="399.5,12.9 425.6,12.9 412.6,58.4 399.5,104 386.5,58.4 373.4,12.9 		"/>
	</g>
</g>
<g id="pumpkinMouth">
	<path class="st5" d="M399.5,458.4c77.8,0,140.9-38.8,140.9-86.6H258.6C258.6,419.7,321.7,458.4,399.5,458.4z"/>
</g>
<g id="pumpkinLeftEye">
	<polygon class="st5" points="291.5,327.2 254.5,327.2 273,295.2 291.5,263.2 310,295.2 328.5,327.2 	"/>
</g>
<g id="pumpkinRightEye">
	<polygon class="st5" points="508.5,327.2 471.6,327.2 490,295.2 508.5,263.2 527,295.2 545.5,327.2 	"/>
</g>
</svg>
